<?xml version="1.0" ?><svg style="enable-background:new 0 0 100 100;" version="1.1" viewBox="0 0 100 100" xml:space="preserve" xmlns="http://www.w3.org/2000/svg" xmlns:xlink="http://www.w3.org/1999/xlink"><g id="blue"><g id="Layer_8_copy"><path d="M71.287,27.267v8.294c0,0.571-0.305,1.1-0.8,1.385L50.276,48.615c-1.066,0.616-1.066,2.155,0,2.771    l20.212,11.669c0.495,0.286,0.8,0.814,0.8,1.385v8.294c0,1.231-1.333,2.001-2.399,1.385L29.513,51.385    c-1.066-0.616-1.066-2.155,0-2.771l39.375-22.733C69.954,25.266,71.287,26.035,71.287,27.267z" style="fill:#415C8C;"/><path d="M31.513,52.385c-1.066-0.616-1.066-2.155,0-2.771l39.375-22.733    c0.1-0.058,0.205-0.092,0.308-0.126c-0.308-0.914-1.401-1.398-2.308-0.874L29.513,48.615c-1.066,0.616-1.066,2.155,0,2.771    l39.375,22.733c0.193,0.112,0.395,0.164,0.596,0.19L31.513,52.385z" style="opacity:0.6;fill:#FFFFFF;"/><path d="M70.487,63.055l-2.376-1.372c-0.013,0.043-0.023,0.09-0.032,0.136l0.409,0.236c0.495,0.286,0.8,0.814,0.8,1.385v8.294    c0,1.008-0.894,1.693-1.803,1.575l1.404,0.81c1.066,0.616,2.399-0.154,2.399-1.385V64.44    C71.287,63.868,70.982,63.34,70.487,63.055z"/><path d="M50.276,48.615l20.212-11.669c0.495-0.286,0.8-0.814,0.8-1.385v-8.294c0-1.115-1.092-1.84-2.091-1.512    c0.054,0.16,0.091,0.328,0.091,0.512v8.294c0,0.571-0.305,1.1-0.8,1.385L48.276,47.615c-0.078,0.052-0.745,0.516-0.8,1.385    c-0.057,0.911,0.609,1.467,0.673,1.518c0.639,0.443,1.277,0.885,1.916,1.328c-0.032-0.112-0.07-0.312,0.019-0.51    c0.011-0.025,0.024-0.049,0.037-0.07C49.225,50.593,49.268,49.196,50.276,48.615z"/><path d="M71.287,27.267v8.294c0,0.571-0.305,1.1-0.8,1.385L50.276,48.615    c-1.066,0.616-1.066,2.155,0,2.771l20.212,11.669c0.495,0.286,0.8,0.814,0.8,1.385v8.294c0,1.231-1.333,2.001-2.399,1.385    L29.513,51.385c-1.066-0.616-1.066-2.155,0-2.771l39.375-22.733C69.954,25.266,71.287,26.035,71.287,27.267z" style="fill:none;stroke:#000000;stroke-miterlimit:10;"/></g></g></svg>