<svg viewBox="0 0 16 16" xmlns="http://www.w3.org/2000/svg"><path fill="#ff7200" d="M2.7 7.99c0 3.65 1.84 6.66 4.26 6.58 3.41-.1 4.4-2.96 4.4-6.61 0-3.66-1.97-6.64-4.4-6.62-2.99.04-4.25 3-4.25 6.65m-2.65 0C.56.19 6.7.01 6.7.01c4.44.04 5.7 4.76 5.7 4.76.06.27 2.63-4.43 2.63-4.43h1.46c-2.97 6.46-2.85 9.1-2.85 9.1-.24 3.46 1.71 4.65 1.71 4.65 1.83 1.16 1.94-2.23 1.94-2.23.4-.16.65-.28.65-.28.96 4.71-1.94 4.39-1.94 4.39-2.27.23-3.23-3.44-3.23-3.44-3.2 4.22-6.9 3.3-6.9 3.3C-.46 15.03.06 8 .06 8"/></svg>